<?xml version="1.0" encoding="utf-8"?>
<!-- Generator: Adobe Illustrator 17.1.0, SVG Export Plug-In . SVG Version: 6.00 Build 0)  -->
<!DOCTYPE svg PUBLIC "-//W3C//DTD SVG 1.1//EN" "http://www.w3.org/Graphics/SVG/1.1/DTD/svg11.dtd">
<svg version="1.1" id="Layer_1" xmlns="http://www.w3.org/2000/svg" xmlns:xlink="http://www.w3.org/1999/xlink" x="0px" y="0px"
	 viewBox="0 0 100.413 100.413" enable-background="new 0 0 100.413 100.413" xml:space="preserve">
<g>
	<path fill="#FFFFFF" d="M81.212,98.413H19.2c-9.5,0-17.2-7.701-17.2-17.2V19.2C2,9.701,9.701,2,19.2,2h62.012
		c9.5,0,17.2,7.701,17.2,17.2v62.012C98.413,90.712,90.712,98.413,81.212,98.413"/>
	<path fill="#FFFFFF" stroke="#010101" stroke-width="4" stroke-miterlimit="10" d="M81.212,98.413H19.2
		c-9.5,0-17.2-7.701-17.2-17.2V19.2C2,9.701,9.701,2,19.2,2h62.012c9.5,0,17.2,7.701,17.2,17.2v62.012
		C98.413,90.712,90.712,98.413,81.212,98.413z"/>
	<path fill="#010101" d="M83.376,30.493V17.082H69.149c0,0-13.065-1.031-15.644,16.333v12.894H40.781v14.614h12.723v37.067h14.785
		v-37.58h12.723l2.364-13.925H68.631V35.309c0,0-0.688-4.815,5.074-5.074L83.376,30.493z"/>
</g>
</svg>
