<?xml version="1.0" encoding="utf-8"?>
<!-- Generator: Adobe Illustrator 17.1.0, SVG Export Plug-In . SVG Version: 6.00 Build 0)  -->
<!DOCTYPE svg PUBLIC "-//W3C//DTD SVG 1.1//EN" "http://www.w3.org/Graphics/SVG/1.1/DTD/svg11.dtd">
<svg version="1.1" id="Layer_1" xmlns="http://www.w3.org/2000/svg" xmlns:xlink="http://www.w3.org/1999/xlink" x="0px" y="0px"
	 viewBox="0 0 204.93 84.532" enable-background="new 0 0 204.93 84.532" xml:space="preserve">
<g>
	
		<text transform="matrix(1 0 0 1.0125 0.25 36.3797)" stroke="#000000" stroke-width="0.5" stroke-miterlimit="10" font-family="'Trochut-Bold'" font-size="42.2292">TIMELESS</text>
	<path stroke="#000000" stroke-width="0.5" stroke-miterlimit="10" d="M29.515,14.275c0-1.511-0.409-2.801-1.225-3.87
		c-0.817-1.069-1.943-1.881-3.378-2.437c-1.436-0.556-2.935-0.948-4.497-1.176c-1.562-0.228-3.273-0.342-5.131-0.342
		s-3.568,0.115-5.131,0.342c-1.562,0.228-3.055,0.62-4.476,1.176C4.255,8.525,3.136,9.337,2.32,10.406
		c-0.817,1.069-1.225,2.359-1.225,3.87v0.727h6.461v-0.727c0-2.907,1.323-4.888,3.97-5.943h0.422v28.049h6.714V8.332l0.422,0.043
		c1.182,0.513,2.133,1.205,2.85,2.074c0.718,0.87,1.077,2.131,1.077,3.784v0.77h6.503V14.275z"/>
	<rect x="33.316" y="6.879" stroke="#000000" stroke-width="0.5" stroke-miterlimit="10" width="6.714" height="29.502"/>
	<path stroke="#000000" stroke-width="0.5" stroke-miterlimit="10" d="M68.239,16.542c0-2.309,0.577-4.318,1.731-6.029
		c1.154-1.71,2.492-2.565,4.012-2.565c0.985,0,1.753,0.435,2.301,1.304c0.549,0.87,0.823,2.601,0.823,5.195v21.934h6.757V16.627
		c0-6.784-2.97-10.176-8.91-10.176c-1.746,0-3.231,0.585-4.455,1.753c-1.225,1.169-2.119,2.708-2.682,4.618
		c-0.986-4.247-3.815-6.371-8.488-6.371c-1.577,0-2.949,0.47-4.117,1.411c-1.169,0.941-2.035,2.252-2.597,3.934V6.879h-6.672v29.502
		h6.672V16.542c0-2.309,0.577-4.318,1.731-6.029c1.154-1.71,2.492-2.565,4.012-2.565c0.985,0,1.753,0.435,2.301,1.304
		c0.549,0.87,0.823,2.601,0.823,5.195v21.934h6.757V16.542z"/>
	<path stroke="#000000" stroke-width="0.5" stroke-miterlimit="10" d="M110.975,27.658h-5.743v0.941
		c0,1.996-0.409,3.613-1.225,4.853c-0.817,1.24-2.006,1.86-3.568,1.86c-1.562,0-2.752-0.612-3.568-1.839
		c-0.817-1.225-1.225-2.85-1.225-4.874v-6.798h11.149v-2.01H95.646V14.66c0-2.023,0.408-3.648,1.225-4.874
		c0.816-1.225,2.006-1.839,3.568-1.839c1.562,0,2.752,0.62,3.568,1.86c0.816,1.24,1.225,2.858,1.225,4.853v0.941h5.743v-0.556
		c0-2.679-1.077-4.781-3.231-6.307c-2.154-1.525-4.582-2.288-7.285-2.288c-3.435,0-6.215,1.077-8.34,3.228
		c-2.126,2.152-3.188,4.839-3.188,8.06v7.782c0,3.221,1.063,5.908,3.188,8.06c2.125,2.152,4.905,3.228,8.34,3.228
		c2.28,0,4.519-0.627,6.714-1.881c1.126-0.655,2.041-1.574,2.745-2.758c0.704-1.183,1.056-2.544,1.056-4.083V27.658z"/>
	<polygon stroke="#000000" stroke-width="0.5" stroke-miterlimit="10" points="130.063,34.371 122.293,34.371 122.293,6.878 
		115.62,6.878 115.62,36.381 130.063,36.381 	"/>
	<path stroke="#000000" stroke-width="0.5" stroke-miterlimit="10" d="M154.851,27.658h-5.743v0.941
		c0,1.996-0.409,3.613-1.225,4.853c-0.817,1.24-2.006,1.86-3.568,1.86c-1.562,0-2.752-0.612-3.568-1.839
		c-0.817-1.225-1.225-2.85-1.225-4.874v-6.798h11.149v-2.01h-11.149V14.66c0-2.023,0.408-3.648,1.225-4.874
		c0.816-1.225,2.006-1.839,3.568-1.839c1.562,0,2.752,0.62,3.568,1.86c0.816,1.24,1.225,2.858,1.225,4.853v0.941h5.743v-0.556
		c0-2.679-1.077-4.781-3.231-6.307c-2.154-1.525-4.582-2.288-7.285-2.288c-3.435,0-6.215,1.077-8.34,3.228
		c-2.126,2.152-3.188,4.839-3.188,8.06v7.782c0,3.221,1.063,5.908,3.188,8.06c2.125,2.152,4.905,3.228,8.34,3.228
		c2.28,0,4.519-0.627,6.714-1.881c1.126-0.655,2.041-1.574,2.745-2.758c0.704-1.183,1.056-2.544,1.056-4.083V27.658z"/>
	<path stroke="#000000" stroke-width="0.5" stroke-miterlimit="10" d="M167.731,17.14c-1.042-0.627-1.866-1.254-2.47-1.881
		c-0.606-0.627-0.908-1.382-0.908-2.266c0-1.482,0.535-2.694,1.605-3.634c1.069-0.941,2.357-1.411,3.864-1.411
		c1.506,0,2.787,0.485,3.843,1.454c1.056,0.97,1.584,1.939,1.584,2.907h1.436v-0.257c0-0.855-0.521-1.924-1.562-3.207
		c-0.563-0.684-1.415-1.254-2.555-1.71c-1.14-0.456-2.456-0.684-3.948-0.684c-2.816,0-5.181,0.855-7.095,2.565
		c-1.915,1.71-2.872,3.606-2.872,5.687c0,2.565,1.168,4.561,3.505,5.986l8.446,5.216c1.97,1.226,2.956,2.494,2.956,3.805
		c0,1.739-0.471,3.1-1.415,4.083c-0.943,0.983-2.182,1.475-3.716,1.475c-1.535,0-2.829-0.634-3.885-1.903
		c-1.056-1.268-1.584-2.857-1.584-4.767v-0.941h-5.363v0.47c0,2.794,1.041,4.938,3.125,6.435c2.084,1.497,4.575,2.245,7.475,2.245
		c2.9,0,5.525-0.89,7.876-2.672c2.351-1.781,3.526-3.819,3.526-6.114c0-2.294-1.084-4.14-3.252-5.537L167.731,17.14z"/>
	<path stroke="#000000" stroke-width="0.5" stroke-miterlimit="10" d="M191.801,17.14c-1.042-0.627-1.866-1.254-2.47-1.881
		c-0.606-0.627-0.908-1.382-0.908-2.266c0-1.482,0.535-2.694,1.605-3.634c1.069-0.941,2.357-1.411,3.864-1.411
		c1.506,0,2.787,0.485,3.843,1.454c1.056,0.97,1.584,1.939,1.584,2.907h1.436v-0.257c0-0.855-0.521-1.924-1.562-3.207
		c-0.563-0.684-1.415-1.254-2.555-1.71c-1.14-0.456-2.457-0.684-3.948-0.684c-2.816,0-5.181,0.855-7.094,2.565
		c-1.915,1.71-2.872,3.606-2.872,5.687c0,2.565,1.168,4.561,3.505,5.986l8.446,5.216c1.97,1.226,2.956,2.494,2.956,3.805
		c0,1.739-0.472,3.1-1.415,4.083c-0.943,0.983-2.182,1.475-3.716,1.475c-1.535,0-2.829-0.634-3.885-1.903
		c-1.056-1.268-1.584-2.857-1.584-4.767v-0.941h-5.363v0.47c0,2.794,1.041,4.938,3.125,6.435c2.083,1.497,4.574,2.245,7.475,2.245
		c2.899,0,5.525-0.89,7.876-2.672c2.351-1.781,3.526-3.819,3.526-6.114c0-2.294-1.084-4.14-3.252-5.537L191.801,17.14z"/>
	
		<text transform="matrix(1 0 0 1.0125 15.959 73.7938)" stroke="#000000" stroke-width="0.5" stroke-miterlimit="10" font-family="'Trochut-Bold'" font-size="42.2292">FASHION</text>
	<path stroke="#000000" stroke-width="0.5" stroke-miterlimit="10" d="M37.244,51.517c0-2.28-0.894-4.126-2.682-5.537
		c-1.788-1.411-3.815-2.116-6.081-2.116c-2.267,0-4.322,0.663-6.165,1.988c-1.845,1.325-2.766,3.129-2.766,5.409v5.943H17.86v2.01
		h1.689v14.58h6.714v-14.58h6.419v-2.01h-6.419v-8.338c0-1.054,0.239-1.903,0.718-2.544c0.478-0.641,1.154-0.962,2.027-0.962
		c0.872,0,1.541,0.314,2.006,0.941c0.465,0.628,0.697,1.483,0.697,2.565v4.147h5.532V51.517z"/>
	<path stroke="#000000" stroke-width="0.5" stroke-miterlimit="10" d="M63.89,44.291h-6.714v4.917
		c-0.451-1.482-1.253-2.743-2.407-3.784c-1.155-1.04-2.52-1.561-4.096-1.561c-2.703,0-5.054,0.934-7.052,2.801
		c-1.999,1.868-2.998,4.554-2.998,8.06v8.509c0,3.478,0.9,6.178,2.703,8.102c1.802,1.924,4.223,2.886,7.263,2.886
		c1.323,0,2.59-0.428,3.801-1.283c1.21-0.855,2.139-2.138,2.787-3.848v4.703h6.714V44.291z M55.57,70.159
		c-1.042,1.71-2.449,2.565-4.223,2.565c-1.211,0-2.189-0.599-2.935-1.796c-0.747-1.197-1.119-3.049-1.119-5.558V52.543
		c0-1.454,0.197-2.865,0.591-4.233c0.225-0.883,0.612-1.596,1.161-2.138c0.549-0.541,1.231-0.812,2.048-0.812
		c1.802,0,3.258,0.87,4.371,2.608c1.112,1.739,1.668,3.677,1.668,5.815v10.304C57.133,66.425,56.612,68.449,55.57,70.159z"/>
	<path stroke="#000000" stroke-width="0.5" stroke-miterlimit="10" d="M78.036,54.553c-1.042-0.627-1.866-1.254-2.47-1.881
		c-0.606-0.627-0.908-1.382-0.908-2.266c0-1.482,0.535-2.694,1.605-3.634c1.069-0.941,2.357-1.411,3.864-1.411
		c1.506,0,2.787,0.485,3.843,1.454c1.056,0.97,1.584,1.939,1.584,2.907h1.436v-0.257c0-0.855-0.521-1.924-1.562-3.207
		c-0.563-0.684-1.415-1.254-2.555-1.71c-1.14-0.456-2.457-0.684-3.948-0.684c-2.816,0-5.181,0.855-7.095,2.565
		c-1.915,1.71-2.872,3.606-2.872,5.687c0,2.565,1.168,4.561,3.505,5.986l8.446,5.216c1.97,1.226,2.956,2.494,2.956,3.805
		c0,1.739-0.472,3.1-1.415,4.083c-0.943,0.983-2.182,1.475-3.716,1.475c-1.535,0-2.829-0.634-3.885-1.903
		c-1.056-1.268-1.584-2.857-1.584-4.767v-0.941h-5.363v0.47c0,2.794,1.041,4.938,3.125,6.435c2.083,1.497,4.574,2.245,7.475,2.245
		c2.899,0,5.524-0.89,7.876-2.672c2.351-1.781,3.526-3.819,3.526-6.114c0-2.294-1.084-4.14-3.252-5.537L78.036,54.553z"/>
	<polygon stroke="#000000" stroke-width="0.5" stroke-miterlimit="10" points="116.718,44.291 110.004,44.291 110.004,57.203 
		100.544,57.203 100.544,44.291 93.872,44.291 93.872,73.793 100.544,73.793 100.544,59.256 110.004,59.256 110.004,73.793 
		116.718,73.793 	"/>
	<rect x="122.63" y="44.291" stroke="#000000" stroke-width="0.5" stroke-miterlimit="10" width="6.715" height="29.502"/>
	<path stroke="#000000" stroke-width="0.5" stroke-miterlimit="10" d="M149.91,70.865c-0.817,1.24-2.006,1.86-3.568,1.86
		c-1.562,0-2.752-0.612-3.568-1.839c-0.817-1.225-1.225-2.85-1.225-4.874V52.073c0-1.995,0.408-3.613,1.225-4.853
		c0.816-1.24,2.006-1.86,3.568-1.86c1.562,0,2.752,0.62,3.568,1.86c0.816,1.24,1.225,2.858,1.225,4.853v13.939
		C151.135,68.007,150.726,69.625,149.91,70.865z M157.891,55.451c0-3.506-1.014-6.314-3.041-8.423
		c-2.027-2.109-4.864-3.164-8.509-3.164c-3.646,0-6.475,1.055-8.488,3.164c-2.013,2.11-3.019,4.917-3.019,8.423v7.226
		c0,3.506,1.006,6.307,3.019,8.402c2.013,2.095,4.842,3.143,8.488,3.143c3.645,0,6.482-1.048,8.509-3.143s3.041-4.896,3.041-8.402
		V55.451z"/>
	<path stroke="#000000" stroke-width="0.5" stroke-miterlimit="10" d="M186.438,54.467c0-3.534-0.908-6.185-2.724-7.953
		c-1.816-1.767-4.146-2.651-6.989-2.651c-1.577,0-2.942,0.47-4.096,1.411c-1.155,0.941-2.013,2.252-2.576,3.934v-4.917h-6.672
		v29.502h6.672V53.954c0-2.309,0.577-4.318,1.731-6.029c1.154-1.71,2.492-2.565,4.012-2.565c2.59,0,3.885,2.309,3.885,6.927v21.507
		h6.757V54.467z"/>
	<path d="M14.211,78.482c0,0,0.674,0.107,1.941,0.306c1.266,0.194,3.127,0.437,5.495,0.764c1.184,0.148,2.497,0.311,3.926,0.488
		c1.431,0.158,2.977,0.328,4.632,0.509c1.655,0.155,3.416,0.32,5.274,0.495c1.856,0.153,3.812,0.313,5.85,0.48
		c2.04,0.131,4.166,0.269,6.366,0.41c2.201,0.107,4.476,0.218,6.815,0.33c2.339,0.066,4.743,0.131,7.201,0.199
		c2.458,0.017,4.966,0.036,7.519,0.053c2.552-0.044,5.146-0.09,7.771-0.133c2.623-0.114,5.279-0.23,7.953-0.347
		c2.671-0.192,5.362-0.386,8.065-0.58c2.693-0.286,5.398-0.573,8.101-0.859c5.413-0.631,10.828-1.429,16.224-1.892
		c1.351-0.109,2.693-0.262,4.032-0.33c1.339-0.053,2.671-0.107,3.996-0.158c2.652-0.148,5.262-0.107,7.832-0.121
		c1.283-0.005,2.557-0.007,3.819-0.012c1.262,0.005,2.509,0.049,3.741,0.08c2.467,0.066,4.881,0.129,7.232,0.189
		c4.697,0.126,9.132,0.371,13.227,0.548c2.048,0.097,4.01,0.189,5.876,0.279c1.863,0.112,3.632,0.221,5.296,0.32
		c3.324,0.201,6.221,0.378,8.608,0.522c2.385,0.158,4.26,0.281,5.539,0.366c1.276,0.087,1.958,0.136,1.958,0.136
		s-0.682-0.005-1.963-0.012c-1.281-0.01-3.159-0.024-5.551-0.044c-4.78-0.061-11.607-0.146-19.802-0.25
		c-4.093-0.046-8.53-0.097-13.223-0.153c-2.344-0.002-4.753-0.007-7.213-0.012c-1.23-0.002-2.475-0.002-3.729-0.005
		c-1.254,0.022-2.521,0.044-3.797,0.068c-2.55,0.051-5.148,0.051-7.761,0.235c-1.308,0.07-2.623,0.141-3.945,0.214
		c-1.322,0.075-2.642,0.233-3.974,0.345c-5.316,0.483-10.716,1.31-16.153,1.965c-2.732,0.274-5.461,0.551-8.183,0.825
		c-2.725,0.184-5.442,0.366-8.135,0.546c-2.698,0.09-5.374,0.18-8.018,0.267c-2.645,0.007-5.258,0.012-7.827,0.019
		c-2.569-0.063-5.095-0.126-7.565-0.187c-2.47-0.129-4.884-0.255-7.235-0.376c-2.346-0.175-4.629-0.345-6.837-0.509
		c-2.205-0.218-4.333-0.427-6.376-0.631c-2.038-0.24-3.993-0.473-5.849-0.694c-1.854-0.262-3.61-0.509-5.262-0.742
		c-1.647-0.26-3.188-0.505-4.612-0.728c-1.422-0.245-2.729-0.471-3.909-0.674c-2.356-0.425-4.195-0.818-5.449-1.08
		C14.878,78.63,14.211,78.482,14.211,78.482"/>
</g>
</svg>
