<?xml version="1.0" encoding="utf-8"?>
<!-- Generator: Adobe Illustrator 17.1.0, SVG Export Plug-In . SVG Version: 6.00 Build 0)  -->
<!DOCTYPE svg PUBLIC "-//W3C//DTD SVG 1.1//EN" "http://www.w3.org/Graphics/SVG/1.1/DTD/svg11.dtd">
<svg version="1.1" id="Layer_1" xmlns="http://www.w3.org/2000/svg" xmlns:xlink="http://www.w3.org/1999/xlink" x="0px" y="0px"
	 viewBox="0 0 99.413 99.413" enable-background="new 0 0 99.413 99.413" xml:space="preserve">
<g>
	<path fill="#FFFFFF" stroke="#010101" stroke-width="2" stroke-miterlimit="10" d="M80.712,97.913H18.7
		c-9.5,0-17.2-7.701-17.2-17.2V18.7c0-9.5,7.701-17.2,17.2-17.2h62.012c9.5,0,17.2,7.701,17.2,17.2v62.012
		C97.913,90.212,90.212,97.913,80.712,97.913"/>
	<path fill="none" stroke="#010101" stroke-width="3" stroke-miterlimit="10" d="M80.712,97.913H18.7c-9.5,0-17.2-7.701-17.2-17.2
		V18.7c0-9.5,7.701-17.2,17.2-17.2h62.012c9.5,0,17.2,7.701,17.2,17.2v62.012C97.913,90.212,90.212,97.913,80.712,97.913z"/>
	<path fill="#010101" d="M73.979,27.977c0,0-8.724-8.966-19.867-1.453c0,0-6.905,4.967-5.209,14.9c0,0-18.414,0-30.528-15.266
		c0,0-6.181,11.633,4.481,19.385c0,0-2.666,1.09-6.905-1.695c0,0-0.123,12.357,12.114,14.781c0,0-4.242,0.967-6.785,0
		c0,0,1.576,9.086,13.933,10.538c0,0-8.166,7.267-21.709,5.938c0,0,26.374,17.308,51.442-4.907c0,0,14.598-12.055,13.01-32.685
		c0,0,5.4-2.861,7.462-7.458l-8.039,2.284c0,0,5.655-6.061,5.655-7.518C83.033,24.822,76.45,27.866,73.979,27.977"/>
</g>
</svg>
