<?xml version="1.0" encoding="utf-8"?>
<!-- Generator: Adobe Illustrator 17.1.0, SVG Export Plug-In . SVG Version: 6.00 Build 0)  -->
<!DOCTYPE svg PUBLIC "-//W3C//DTD SVG 1.1//EN" "http://www.w3.org/Graphics/SVG/1.1/DTD/svg11.dtd">
<svg version="1.1" id="Layer_1" xmlns="http://www.w3.org/2000/svg" xmlns:xlink="http://www.w3.org/1999/xlink" x="0px" y="0px"
	 viewBox="0 0 1224 792" enable-background="new 0 0 1224 792" xml:space="preserve">
<g>
	<text transform="matrix(0.9877 0 0 1 1.4904 360.8394)" fill="#FFFFFF" font-family="'Trochut-Bold'" font-size="255.3782">TIMELESS</text>
	<text transform="matrix(0.9877 0 0 1 1.4904 360.8394)" fill="#FFFFFF" font-family="'Trochut-Bold'" font-size="255.3782">TIMELESS</text>
	<path fill="#FFFFFF" d="M176.3,228.8c0-9-2.4-16.7-7.3-23.1c-4.9-6.4-11.6-11.2-20.2-14.6c-8.6-3.3-17.5-5.7-26.9-7
		c-9.3-1.4-19.5-2-30.6-2s-21.3,0.7-30.6,2c-9.3,1.4-18.2,3.7-26.7,7c-8.5,3.3-15.2,8.2-20.1,14.6c-4.9,6.4-7.3,14.1-7.3,23.1v4.3
		h38.6v-4.3c0-17.4,7.9-29.2,23.7-35.5h2.5v167.5h40.1V193.3l2.5,0.3c7.1,3.1,12.7,7.2,17,12.4c4.3,5.2,6.4,12.7,6.4,22.6v4.6h38.8
		L176.3,228.8L176.3,228.8z"/>
	<rect x="199" y="184.6" fill="#FFFFFF" width="40.1" height="176.2"/>
	<path fill="#FFFFFF" d="M407.6,242.4c0-13.8,3.4-25.8,10.3-36c6.9-10.2,14.9-15.3,24-15.3c5.9,0,10.5,2.6,13.7,7.8
		c3.3,5.2,4.9,15.5,4.9,31v131h40.4v-118c0-40.5-17.7-60.8-53.2-60.8c-10.4,0-19.3,3.5-26.6,10.5c-7.3,7-12.7,16.2-16,27.6
		c-5.9-25.4-22.8-38.1-50.7-38.1c-9.4,0-17.6,2.8-24.6,8.4c-7,5.6-12.2,13.5-15.5,23.5v-29.4h-39.9v176.2h39.9V242.4
		c0-13.8,3.4-25.8,10.3-36c6.9-10.2,14.9-15.3,24-15.3c5.9,0,10.5,2.6,13.7,7.8c3.3,5.2,4.9,15.5,4.9,31v131h40.4L407.6,242.4
		L407.6,242.4z"/>
	<path fill="#FFFFFF" d="M662.8,308.7h-34.3v5.6c0,11.9-2.4,21.6-7.3,29c-4.9,7.4-12,11.1-21.3,11.1c-9.3,0-16.4-3.7-21.3-11
		c-4.9-7.3-7.3-17-7.3-29.1v-40.6h66.6v-12h-66.6v-30.6c0-12.1,2.4-21.8,7.3-29.1c4.9-7.3,12-11,21.3-11s16.4,3.7,21.3,11.1
		s7.3,17.1,7.3,29v5.6h34.3v-3.3c0-16-6.4-28.6-19.3-37.7c-12.9-9.1-27.4-13.7-43.5-13.7c-20.5,0-37.1,6.4-49.8,19.3
		c-12.7,12.9-19,28.9-19,48.1V296c0,19.2,6.3,35.3,19,48.1c12.7,12.9,29.3,19.3,49.8,19.3c13.6,0,27-3.7,40.1-11.2
		c6.7-3.9,12.2-9.4,16.4-16.5c4.2-7.1,6.3-15.2,6.3-24.4L662.8,308.7L662.8,308.7z"/>
	<polygon fill="#FFFFFF" points="776.8,348.8 730.4,348.8 730.4,184.6 690.6,184.6 690.6,360.9 776.8,360.9 	"/>
	<path fill="#FFFFFF" d="M924.9,308.7h-34.3v5.6c0,11.9-2.4,21.6-7.3,29c-4.9,7.4-12,11.1-21.3,11.1c-9.3,0-16.4-3.7-21.3-11
		c-4.9-7.3-7.3-17-7.3-29.1v-40.6h66.6v-12h-66.6v-30.6c0-12.1,2.4-21.8,7.3-29.1c4.9-7.3,12-11,21.3-11c9.3,0,16.4,3.7,21.3,11.1
		c4.9,7.4,7.3,17.1,7.3,29v5.6h34.3v-3.3c0-16-6.4-28.6-19.3-37.7c-12.9-9.1-27.4-13.7-43.5-13.7c-20.5,0-37.1,6.4-49.8,19.3
		c-12.7,12.9-19,28.9-19,48.1V296c0,19.2,6.3,35.3,19,48.1c12.7,12.9,29.3,19.3,49.8,19.3c13.6,0,27-3.7,40.1-11.2
		c6.7-3.9,12.2-9.4,16.4-16.5c4.2-7.1,6.3-15.2,6.3-24.4L924.9,308.7L924.9,308.7z"/>
	<path fill="#FFFFFF" d="M1001.8,245.9c-6.2-3.7-11.1-7.5-14.8-11.2c-3.6-3.7-5.4-8.3-5.4-13.5c0-8.9,3.2-16.1,9.6-21.7
		c6.4-5.6,14.1-8.4,23.1-8.4c9,0,16.6,2.9,23,8.7c6.3,5.8,9.5,11.6,9.5,17.4h8.6v-1.5c0-5.1-3.1-11.5-9.3-19.2
		c-3.4-4.1-8.5-7.5-15.3-10.2c-6.8-2.7-14.7-4.1-23.6-4.1c-16.8,0-30.9,5.1-42.4,15.3c-11.4,10.2-17.2,21.5-17.2,34
		c0,15.3,7,27.2,20.9,35.8l50.4,31.2c11.8,7.3,17.7,14.9,17.7,22.7c0,10.4-2.8,18.5-8.5,24.4c-5.6,5.9-13,8.8-22.2,8.8
		c-9.2,0-16.9-3.8-23.2-11.4c-6.3-7.6-9.5-17.1-9.5-28.5v-5.6h-32v2.8c0,16.7,6.2,29.5,18.7,38.4c12.4,8.9,27.3,13.4,44.6,13.4
		s33-5.3,47-16c14-10.6,21.1-22.8,21.1-36.5c0-13.7-6.5-24.7-19.4-33.1L1001.8,245.9z"/>
	<path fill="#FFFFFF" d="M1145.6,245.9c-6.2-3.7-11.1-7.5-14.8-11.2c-3.6-3.7-5.4-8.3-5.4-13.5c0-8.9,3.2-16.1,9.6-21.7
		c6.4-5.6,14.1-8.4,23.1-8.4c9,0,16.6,2.9,23,8.7c6.3,5.8,9.5,11.6,9.5,17.4h8.6v-1.5c0-5.1-3.1-11.5-9.3-19.2
		c-3.4-4.1-8.5-7.5-15.3-10.2c-6.8-2.7-14.7-4.1-23.6-4.1c-16.8,0-30.9,5.1-42.4,15.3c-11.4,10.2-17.2,21.5-17.2,34
		c0,15.3,7,27.2,20.9,35.8l50.4,31.2c11.8,7.3,17.7,14.9,17.7,22.7c0,10.4-2.8,18.5-8.5,24.4s-13,8.8-22.2,8.8
		c-9.2,0-16.9-3.8-23.2-11.4c-6.3-7.6-9.5-17.1-9.5-28.5v-5.6h-32v2.8c0,16.7,6.2,29.5,18.7,38.4c12.4,8.9,27.3,13.4,44.6,13.4
		c17.3,0,33-5.3,47-16c14-10.6,21.1-22.8,21.1-36.5c0-13.7-6.5-24.7-19.4-33.1L1145.6,245.9z"/>
	<text transform="matrix(0.9877 0 0 1 95.3205 584.3036)" fill="#FFFFFF" font-family="'Trochut-Bold'" font-size="255.3782">FASHION</text>
	<text transform="matrix(0.9877 0 0 1 95.3205 584.3036)" fill="#FFFFFF" font-family="'Trochut-Bold'" font-size="255.3782">FASHION</text>
	<path fill="#FFFFFF" d="M222.4,451.3c0-13.6-5.3-24.6-16-33.1c-10.7-8.4-22.8-12.6-36.3-12.6c-13.5,0-25.8,4-36.8,11.9
		c-11,7.9-16.5,18.7-16.5,32.3v35.5h-10.1v12h10.1v87.1h40.1v-87.1h38.3v-12h-38.3v-49.8c0-6.3,1.4-11.4,4.3-15.2
		c2.9-3.8,6.9-5.7,12.1-5.7c5.2,0,9.2,1.9,12,5.6c2.8,3.8,4.2,8.9,4.2,15.3v24.8h33L222.4,451.3L222.4,451.3z"/>
	<path fill="#FFFFFF" d="M381.6,408.1h-40.1v29.4c-2.7-8.9-7.5-16.4-14.4-22.6c-6.9-6.2-15.1-9.3-24.5-9.3
		c-16.1,0-30.2,5.6-42.1,16.7c-11.9,11.2-17.9,27.2-17.9,48.1v50.8c0,20.8,5.4,36.9,16.1,48.4c10.8,11.5,25.2,17.2,43.4,17.2
		c7.9,0,15.5-2.6,22.7-7.7c7.2-5.1,12.8-12.8,16.6-23v28.1h40.1L381.6,408.1L381.6,408.1z M331.9,562.6
		c-6.2,10.2-14.6,15.3-25.2,15.3c-7.2,0-13.1-3.6-17.5-10.7c-4.5-7.1-6.7-18.2-6.7-33.2v-76.6c0-8.7,1.2-17.1,3.5-25.3
		c1.3-5.3,3.7-9.5,6.9-12.8c3.3-3.2,7.4-4.8,12.2-4.8c10.8,0,19.5,5.2,26.1,15.6c6.6,10.4,10,22,10,34.7v61.5
		C341.2,540.3,338.1,552.4,331.9,562.6z"/>
	<path fill="#FFFFFF" d="M466.1,469.4c-6.2-3.7-11.1-7.5-14.8-11.2c-3.6-3.7-5.4-8.3-5.4-13.5c0-8.9,3.2-16.1,9.6-21.7
		c6.4-5.6,14.1-8.4,23.1-8.4c9,0,16.6,2.9,23,8.7c6.3,5.8,9.5,11.6,9.5,17.4h8.6V439c0-5.1-3.1-11.5-9.3-19.2
		c-3.4-4.1-8.5-7.5-15.3-10.2s-14.7-4.1-23.6-4.1c-16.8,0-30.9,5.1-42.4,15.3c-11.4,10.2-17.2,21.5-17.2,34c0,15.3,7,27.2,20.9,35.8
		l50.4,31.2c11.8,7.3,17.7,14.9,17.7,22.7c0,10.4-2.8,18.5-8.5,24.4c-5.6,5.9-13,8.8-22.2,8.8c-9.2,0-16.9-3.8-23.2-11.4
		c-6.3-7.6-9.5-17.1-9.5-28.5v-5.6h-32v2.8c0,16.7,6.2,29.5,18.7,38.4c12.4,8.9,27.3,13.4,44.6,13.4c17.3,0,33-5.3,47-16
		c14-10.6,21.1-22.8,21.1-36.5c0-13.7-6.5-24.7-19.4-33.1L466.1,469.4z"/>
	<polygon fill="#FFFFFF" points="697.1,408.1 657,408.1 657,485.2 600.5,485.2 600.5,408.1 560.7,408.1 560.7,584.3 600.5,584.3 
		600.5,497.5 657,497.5 657,584.3 697.1,584.3 	"/>
	<rect x="732.4" y="408.1" fill="#FFFFFF" width="40.1" height="176.2"/>
	<path fill="#FFFFFF" d="M895.4,566.8c-4.9,7.4-12,11.1-21.3,11.1c-9.3,0-16.4-3.7-21.3-11c-4.9-7.3-7.3-17-7.3-29.1v-83.3
		c0-11.9,2.4-21.6,7.3-29c4.9-7.4,12-11.1,21.3-11.1c9.3,0,16.4,3.7,21.3,11.1c4.9,7.4,7.3,17.1,7.3,29v83.3
		C902.7,549.7,900.3,559.4,895.4,566.8z M943,474.8c0-20.9-6.1-37.7-18.2-50.3c-12.1-12.6-29.1-18.9-50.8-18.9
		c-21.8,0-38.7,6.3-50.7,18.9c-12,12.6-18,29.4-18,50.3v43.2c0,20.9,6,37.7,18,50.2c12,12.5,28.9,18.8,50.7,18.8
		c21.8,0,38.7-6.3,50.8-18.8c12.1-12.5,18.2-29.2,18.2-50.2V474.8z"/>
	<path fill="#FFFFFF" d="M1113.6,468.9c0-21.1-5.4-36.9-16.3-47.5c-10.8-10.6-24.8-15.8-41.7-15.8c-9.4,0-17.6,2.8-24.5,8.4
		c-6.9,5.6-12,13.5-15.4,23.5v-29.4h-39.9v176.2h39.9V465.8c0-13.8,3.4-25.8,10.3-36c6.9-10.2,14.9-15.3,24-15.3
		c15.5,0,23.2,13.8,23.2,41.4v128.5h40.4V468.9z"/>
	<path fill="#FFFFFF" d="M84.9,612.3c0,0,4,0.6,11.6,1.8c7.6,1.2,18.7,2.6,32.8,4.6c7.1,0.9,14.9,1.9,23.4,2.9
		c8.5,0.9,17.8,2,27.7,3c9.9,0.9,20.4,1.9,31.5,3c11.1,0.9,22.8,1.9,34.9,2.9c12.2,0.8,24.9,1.6,38,2.4c13.1,0.6,26.7,1.3,40.7,2
		c14,0.4,28.3,0.8,43,1.2c14.7,0.1,29.7,0.2,44.9,0.3c15.2-0.3,30.7-0.5,46.4-0.8c15.7-0.7,31.5-1.4,47.5-2.1
		c16-1.1,32-2.3,48.2-3.5c16.1-1.7,32.2-3.4,48.4-5.1c32.3-3.8,64.7-8.5,96.9-11.3c8.1-0.7,16.1-1.6,24.1-2c8-0.3,16-0.6,23.9-0.9
		c15.8-0.9,31.4-0.6,46.8-0.7c7.7,0,15.3,0,22.8-0.1c7.5,0,15,0.3,22.3,0.5c14.7,0.4,29.2,0.8,43.2,1.1c28.1,0.8,54.5,2.2,79,3.3
		c12.2,0.6,24,1.1,35.1,1.7c11.1,0.7,21.7,1.3,31.6,1.9c19.9,1.2,37.2,2.3,51.4,3.1c14.2,0.9,25.4,1.7,33.1,2.2
		c7.6,0.5,11.7,0.8,11.7,0.8s-4.1,0-11.7-0.1c-7.7-0.1-18.9-0.1-33.2-0.3c-28.5-0.4-69.3-0.9-118.3-1.5c-24.4-0.3-50.9-0.6-79-0.9
		c-14,0-28.4,0-43.1-0.1c-7.3,0-14.8,0-22.3,0c-7.5,0.1-15.1,0.3-22.7,0.4c-15.2,0.3-30.7,0.3-46.4,1.4c-7.8,0.4-15.7,0.8-23.6,1.3
		c-7.9,0.4-15.8,1.4-23.7,2.1c-31.8,2.9-64,7.8-96.5,11.7c-16.3,1.6-32.6,3.3-48.9,4.9c-16.3,1.1-32.5,2.2-48.6,3.3
		c-16.1,0.5-32.1,1.1-47.9,1.6c-15.8,0-31.4,0.1-46.7,0.1c-15.3-0.4-30.4-0.8-45.2-1.1c-14.8-0.8-29.2-1.5-43.2-2.2
		c-14-1-27.6-2.1-40.8-3c-13.2-1.3-25.9-2.6-38.1-3.8c-12.2-1.4-23.8-2.8-34.9-4.1c-11.1-1.6-21.6-3-31.4-4.4
		c-9.8-1.6-19-3-27.5-4.3c-8.5-1.5-16.3-2.8-23.3-4c-14.1-2.5-25.1-4.9-32.5-6.5C88.9,613.2,84.9,612.3,84.9,612.3"/>
</g>
</svg>
